RBDS04runT25_grf
version=1
nRows=27
nColumns=19
inDegrees=no
endheader
time	ground_force_r_vx	ground_force_r_vy	ground_force_r_vz	ground_force_r_px	ground_force_r_py	ground_force_r_pz	ground_force_r_mx	ground_force_r_my	ground_force_r_mz	ground_force_l_vx	ground_force_l_vy	ground_force_l_vz	ground_force_l_px	ground_force_l_py	ground_force_l_pz	ground_force_l_mx	ground_force_l_my	ground_force_l_mz
     22.49800000	    -19.16741006	   1311.40847202	    -35.15284679	      2.05291532	      0.00000000	      1.02753964	      0.00000000	      4.82151909	     -0.00000000	      0.00000000	      0.00000000	      0.00000000	      0.00000000	      0.00000000	      0.00000000	      0.00000000	      0.00000000	      0.00000000
     22.49900000	    -15.71256439	   1304.23011129	    -34.81863242	      2.05097089	      0.00000000	      1.02763409	      0.00000000	      4.82326338	     -0.00000000	      0.00000000	      0.00000000	      0.00000000	      0.00000000	      0.00000000	      0.00000000	      0.00000000	      0.00000000	      0.00000000
     22.50000000	    -12.25771872	   1297.05175055	    -34.48441805	      2.04902647	      0.00000000	      1.02772854	      0.00000000	      4.82500768	     -0.00000000	      0.00000000	      0.00000000	      0.00000000	      0.00000000	      0.00000000	      0.00000000	      0.00000000	      0.00000000	      0.00000000
     22.50100000	     -8.85632098	   1289.08043751	    -34.02414892	      2.04709692	      0.00000000	      1.02780517	     -0.00000000	      4.82139599	     -0.00000000	      0.00000000	      0.00000000	      0.00000000	      0.00000000	      0.00000000	      0.00000000	      0.00000000	      0.00000000	      0.00000000
     22.50200000	     -5.45492325	   1281.10912447	    -33.56387979	      2.04516738	      0.00000000	      1.02788180	     -0.00000000	      4.81778430	     -0.00000000	      0.00000000	      0.00000000	      0.00000000	      0.00000000	      0.00000000	      0.00000000	      0.00000000	      0.00000000	      0.00000000
     22.50300000	     -2.05352551	   1273.13781142	    -33.10361066	      2.04323783	      0.00000000	      1.02795843	     -0.00000000	      4.81417262	     -0.00000000	      0.00000000	      0.00000000	      0.00000000	      0.00000000	      0.00000000	      0.00000000	      0.00000000	      0.00000000	      0.00000000
     22.50400000	      1.29740924	   1264.66423196	    -32.56428120	      2.04131478	      0.00000000	      1.02802239	     -0.00000000	      4.80659022	     -0.00000000	      0.00000000	      0.00000000	      0.00000000	      0.00000000	      0.00000000	      0.00000000	      0.00000000	      0.00000000	      0.00000000
     22.50500000	      4.62311249	   1255.93951928	    -31.98542158	      2.03939497	      0.00000000	      1.02808003	     -0.00000000	      4.79702247	     -0.00000000	      0.00000000	      0.00000000	      0.00000000	      0.00000000	      0.00000000	      0.00000000	      0.00000000	      0.00000000	      0.00000000
     22.50600000	      7.94881575	   1247.21480660	    -31.40656195	      2.03747517	      0.00000000	      1.02813766	     -0.00000000	      4.78745472	     -0.00000000	      0.00000000	      0.00000000	      0.00000000	      0.00000000	      0.00000000	      0.00000000	      0.00000000	      0.00000000	      0.00000000
     22.50700000	     11.24254853	   1238.25392941	    -30.79131947	      2.03555672	      0.00000000	      1.02818870	     -0.00000000	      4.77577842	     -0.00000000	      0.00000000	      0.00000000	      0.00000000	      0.00000000	      0.00000000	      0.00000000	      0.00000000	      0.00000000	      0.00000000
     22.50800000	     14.47234035	   1228.82072320	    -30.10331125	      2.03364097	      0.00000000	      1.02822655	     -0.00000000	      4.75988504	     -0.00000000	      0.00000000	      0.00000000	      0.00000000	      0.00000000	      0.00000000	      0.00000000	      0.00000000	      0.00000000	      0.00000000
     22.50900000	     17.70213217	   1219.38751698	    -29.41530303	      2.03172523	      0.00000000	      1.02826440	     -0.00000000	      4.74399166	     -0.00000000	      0.00000000	      0.00000000	      0.00000000	      0.00000000	      0.00000000	      0.00000000	      0.00000000	      0.00000000	      0.00000000
     22.51000000	     20.93192399	   1209.95431077	    -28.72729480	      2.02980949	      0.00000000	      1.02830226	     -0.00000000	      4.72809828	     -0.00000000	      0.00000000	      0.00000000	      0.00000000	      0.00000000	      0.00000000	      0.00000000	      0.00000000	      0.00000000	      0.00000000
     22.51100000	     24.04716389	   1199.86215132	    -27.94138553	      2.02789189	      0.00000000	      1.02832001	     -0.00000000	      4.70574062	     -0.00000000	      0.00000000	      0.00000000	      0.00000000	      0.00000000	      0.00000000	      0.00000000	      0.00000000	      0.00000000	      0.00000000
     22.51200000	     27.16240379	   1189.76999187	    -27.15547625	      2.02597429	      0.00000000	      1.02833777	     -0.00000000	      4.68338295	     -0.00000000	      0.00000000	      0.00000000	      0.00000000	      0.00000000	      0.00000000	      0.00000000	      0.00000000	      0.00000000	      0.00000000
     22.51300000	     30.27764369	   1179.67783243	    -26.36956698	      2.02405669	      0.00000000	      1.02835552	     -0.00000000	      4.66102529	     -0.00000000	      0.00000000	      0.00000000	      0.00000000	      0.00000000	      0.00000000	      0.00000000	      0.00000000	      0.00000000	      0.00000000
     22.51400000	     33.30485485	   1169.18198588	    -25.52697017	      2.02213394	      0.00000000	      1.02836000	     -0.00000000	      4.63441324	     -0.00000000	      0.00000000	      0.00000000	      0.00000000	      0.00000000	      0.00000000	      0.00000000	      0.00000000	      0.00000000	      0.00000000
     22.51500000	     36.28805164	   1158.48429578	    -24.65602960	      2.02020861	      0.00000000	      1.02835785	     -0.00000000	      4.60567399	     -0.00000000	      0.00000000	      0.00000000	      0.00000000	      0.00000000	      0.00000000	      0.00000000	      0.00000000	      0.00000000	      0.00000000
     22.51600000	     39.27124843	   1147.78660568	    -23.78508902	      2.01828328	      0.00000000	      1.02835570	     -0.00000000	      4.57693474	     -0.00000000	      0.00000000	      0.00000000	      0.00000000	      0.00000000	      0.00000000	      0.00000000	      0.00000000	      0.00000000	      0.00000000
     22.51700000	     42.20486548	   1136.90592935	    -22.89056768	      2.01635352	      0.00000000	      1.02834717	     -0.00000000	      4.54616393	     -0.00000000	      0.00000000	      0.00000000	      0.00000000	      0.00000000	      0.00000000	      0.00000000	      0.00000000	      0.00000000	      0.00000000
     22.51800000	     45.03932306	   1125.65928057	    -21.94888480	      2.01441488	      0.00000000	      1.02832588	     -0.00000000	      4.51132999	     -0.00000000	      0.00000000	      0.00000000	      0.00000000	      0.00000000	      0.00000000	      0.00000000	      0.00000000	      0.00000000	      0.00000000
     22.51900000	     47.87378064	   1114.41263179	    -21.00720192	      2.01247624	      0.00000000	      1.02830459	     -0.00000000	      4.47649606	     -0.00000000	      0.00000000	      0.00000000	      0.00000000	      0.00000000	      0.00000000	      0.00000000	      0.00000000	      0.00000000	      0.00000000
     22.52000000	     50.70823822	   1103.16598300	    -20.06551903	      2.01053760	      0.00000000	      1.02828330	     -0.00000000	      4.44166212	     -0.00000000	      0.00000000	      0.00000000	      0.00000000	      0.00000000	      0.00000000	      0.00000000	      0.00000000	      0.00000000	      0.00000000
     22.52100000	     53.37780680	   1091.42941765	    -19.06857067	      2.00858058	      0.00000000	      1.02824428	     -0.00000000	      4.40120194	     -0.00000000	      0.00000000	      0.00000000	      0.00000000	      0.00000000	      0.00000000	      0.00000000	      0.00000000	      0.00000000	      0.00000000
     22.52200000	     56.04737537	   1079.69285230	    -18.07162231	      2.00662356	      0.00000000	      1.02820526	     -0.00000000	      4.36074175	     -0.00000000	      0.00000000	      0.00000000	      0.00000000	      0.00000000	      0.00000000	      0.00000000	      0.00000000	      0.00000000	      0.00000000
     22.52300000	     58.71694395	   1067.95628695	    -17.07467395	      2.00466654	      0.00000000	      1.02816623	     -0.00000000	      4.32028157	     -0.00000000	      0.00000000	      0.00000000	      0.00000000	      0.00000000	      0.00000000	      0.00000000	      0.00000000	      0.00000000	      0.00000000
     22.52400000	     61.26609975	   1055.93371398	    -16.05181421	      2.00269433	      0.00000000	      1.02811677	     -0.00000000	      4.27648635	      0.00000000	      0.00000000	      0.00000000	      0.00000000	      0.00000000	      0.00000000	      0.00000000	      0.00000000	      0.00000000	      0.00000000
